<?xml version="1.0" encoding="UTF-8" standalone="no"?>
<svg
   width="1024"
   height="1024"
   viewBox="0 0 270.93333 270.93334"
   version="1.1"
   id="svg8"
   inkscape:version="1.1 (ce6663b3b7, 2021-05-25)"
   sodipodi:docname="icon_orange.svg"
   inkscape:export-filename="/home/thekiharani/Documents/Noria Telecom/V2/logo_min_5120.png"
   inkscape:export-xdpi="480"
   inkscape:export-ydpi="480"
   xmlns:inkscape="http://www.inkscape.org/namespaces/inkscape"
   xmlns:sodipodi="http://sodipodi.sourceforge.net/DTD/sodipodi-0.dtd"
   xmlns="http://www.w3.org/2000/svg"
   xmlns:svg="http://www.w3.org/2000/svg"
   xmlns:rdf="http://www.w3.org/1999/02/22-rdf-syntax-ns#"
   xmlns:cc="http://creativecommons.org/ns#"
   xmlns:dc="http://purl.org/dc/elements/1.1/">
  <defs
     id="defs2">
    <rect
       x="44.006197"
       y="103.76935"
       width="41.510294"
       height="42.794315"
       id="rect955" />
  </defs>
  <sodipodi:namedview
     id="base"
     pagecolor="#ffffff"
     bordercolor="#666666"
     borderopacity="1.0"
     inkscape:pageopacity="0.0"
     inkscape:pageshadow="2"
     inkscape:zoom="0.7"
     inkscape:cx="384.28571"
     inkscape:cy="505.71429"
     inkscape:document-units="px"
     inkscape:current-layer="g969"
     inkscape:document-rotation="0"
     showgrid="false"
     units="px"
     inkscape:window-width="1920"
     inkscape:window-height="1025"
     inkscape:window-x="0"
     inkscape:window-y="1227"
     inkscape:window-maximized="1"
     inkscape:pagecheckerboard="0" />
  <metadata
     id="metadata5">
    <rdf:RDF>
      <cc:Work
         rdf:about="">
        <dc:format>image/svg+xml</dc:format>
        <dc:type
           rdf:resource="http://purl.org/dc/dcmitype/StillImage" />
      </cc:Work>
    </rdf:RDF>
  </metadata>
  <g
     inkscape:label="Layer 1"
     inkscape:groupmode="layer"
     id="layer1">
    <g
       id="g1738"
       transform="translate(34.783668,-65.033697)">
      <g
         id="g969"
         transform="matrix(1.8548126,0,0,1.9740459,0.65179725,-54.970481)">
        <g
           id="g1763"
           transform="matrix(4.9997705,0,0,5.1204418,-152.3415,-367.46397)"
           inkscape:export-filename="/home/thekiharani/Documents/Noria Telecom/V2/logo_min_512.png"
           inkscape:export-xdpi="245.75996"
           inkscape:export-ydpi="245.75996"
           style="stroke-width:1.00002;fill:#ff8b00;fill-opacity:1">
          <g
             id="g932"
             transform="matrix(0.05572344,0,0,0.05633877,26.992303,84.039057)"
             style="fill:#ff8b00;fill-opacity:1;stroke-width:1.00002">
            <path
               d="m 255.991,169.039 c -30.327,0 -55,24.673 -55,55 0,25.127 16.943,46.356 40,52.904 v 171.096 c 0,8.284 6.716,15 15,15 8.284,0 15,-6.716 15,-15 V 276.943 c 23.057,-6.547 40,-27.777 40,-52.904 0,-30.327 -24.673,-55 -55,-55 z m 0,80 c -13.785,0 -25,-11.215 -25,-25 0,-13.785 11.215,-25 25,-25 13.785,0 25,11.215 25,25 0,13.785 -11.215,25 -25,25 z"
               id="path918"
               style="fill:#ff8b00;fill-opacity:1;stroke-width:1.00002" />
            <path
               d="m 186.597,143.845 c -5.857,-5.858 -15.354,-5.858 -21.213,0 -46.505,46.503 -46.512,121.781 0,168.291 5.859,5.858 15.355,5.858 21.213,0 5.858,-5.857 5.858,-15.355 0,-21.213 -34.78,-34.779 -34.786,-91.08 0,-125.865 5.858,-5.858 5.858,-15.356 0,-21.213 z"
               id="path920"
               style="fill:#ff8b00;fill-opacity:1;stroke-width:1.00002" />
            <path
               d="m 346.597,143.845 c -5.857,-5.857 -15.355,-5.857 -21.213,0 -5.858,5.857 -5.858,15.355 0,21.213 34.701,34.701 34.701,91.164 0,125.865 -5.858,5.857 -5.858,15.355 0,21.213 5.859,5.858 15.355,5.858 21.213,0 46.399,-46.397 46.399,-121.894 0,-168.291 z"
               id="path922"
               style="fill:#ff8b00;fill-opacity:1;stroke-width:1.00002" />
            <path
               d="m 141.342,119.803 c 5.858,-5.857 5.858,-15.355 0,-21.213 -5.857,-5.857 -15.355,-5.857 -21.213,0 -71.352,71.352 -71.352,187.449 0,258.801 5.856,5.857 15.354,5.86 21.213,0 5.858,-5.857 5.858,-15.355 0,-21.213 -59.654,-59.655 -59.654,-156.72 0,-216.375 z"
               id="path924"
               style="fill:#ff8b00;fill-opacity:1;stroke-width:1.00002" />
            <path
               d="m 391.852,98.59 c -5.857,-5.857 -15.355,-5.857 -21.213,0 -5.858,5.857 -5.858,15.355 0,21.213 59.654,59.655 59.654,156.72 0,216.375 -5.858,5.857 -5.858,15.355 0,21.213 5.859,5.858 15.355,5.858 21.213,0 71.352,-71.352 71.352,-187.449 0,-258.801 z"
               id="path926"
               style="fill:#ff8b00;fill-opacity:1;stroke-width:1.00002" />
            <path
               d="m 96.087,74.548 c 5.858,-5.857 5.858,-15.355 0,-21.213 -5.857,-5.857 -15.355,-5.857 -21.213,0 -99.941,99.94 -99.724,249.587 0,349.311 5.856,5.857 15.354,5.86 21.213,0 5.858,-5.857 5.858,-15.355 0,-21.213 -87.475,-87.477 -87.475,-219.408 0,-306.885 z"
               id="path928"
               style="fill:#ff8b00;fill-opacity:1;stroke-width:1.00002" />
            <path
               d="m 437.107,53.335 c -5.857,-5.857 -15.355,-5.857 -21.213,0 -5.858,5.857 -5.858,15.355 0,21.213 87.477,87.477 87.477,219.408 0,306.885 -5.858,5.857 -5.858,15.355 0,21.213 5.859,5.858 15.355,5.858 21.213,0 99.94,-99.939 99.725,-249.587 0,-349.311 z"
               id="path930"
               style="fill:#ff8b00;fill-opacity:1;stroke-width:1.00002" />
          </g>
          <text
             xml:space="preserve"
             style="font-size:13.6727px;line-height:1.25;font-family:Dyuthi;-inkscape-font-specification:'Dyuthi, Normal';fill:#ff8b00;fill-opacity:1;stroke-width:0.341827"
             x="32.76643"
             y="100.21376"
             id="text951"
             transform="scale(1.0946377,0.91354427)"><tspan
               sodipodi:role="line"
               id="tspan949"
               x="32.76643"
               y="100.21376"
               style="fill:#ff8b00;fill-opacity:1;stroke-width:0.341827">N</tspan></text>
        </g>
      </g>
      <text
         xml:space="preserve"
         id="text953"
         style="font-size:10.5833px;line-height:1.25;font-family:Dyuthi;-inkscape-font-specification:'Dyuthi, Normal';white-space:pre;shape-inside:url(#rect955)" />
    </g>
  </g>
</svg>
